<svg width="314" height="365" viewBox="0 0 314 365" fill="none" xmlns="http://www.w3.org/2000/svg">
<g style="mix-blend-mode:soft-light" opacity="0.5">
<path d="M-9 143.07H97.3C97.3 143.07 89.7 119.77 76.9 123.17C64.1 126.47 64.6 129.37 64.6 129.37C64.6 129.37 60.8 109.47 43.7 112.27C26.6 115.07 22.8 128.87 22.8 128.87C22.8 128.87 11.9 124.57 7.10001 128.87C2.40001 133.17 3.30002 135.47 3.30002 135.47C3.30002 135.47 -7.1 130.77 -9 143.07Z" fill="white"/>
</g>
<g style="mix-blend-mode:soft-light" opacity="0.8">
<path d="M272 100.216C270.8 96.8161 268.1 90.9161 263.9 89.5161C257.9 87.5161 249 94.1161 249 94.1161C249 94.1161 244.7 78.6161 230.3 78.0161C215.9 77.4161 218.5 93.8161 218.5 93.8161C218.5 93.8161 214.8 92.7161 207.3 90.4161C199.8 88.1161 197.2 95.0161 197.2 95.0161C192.5 93.3161 190.6 97.8161 190 100.216H272Z" fill="white"/>
</g>
<path d="M48.7 0C48.7 0 48.5 2.6 46 2.9C48.5 3.2 48.7 5.8 48.7 5.8C48.7 5.8 48.9 3.2 51.4 2.9C48.9 2.7 48.7 0 48.7 0Z" fill="#FFD08A"/>
<path d="M182.7 41C182.7 41 182.5 43.6 180 43.9C182.5 44.2 182.7 46.8 182.7 46.8C182.7 46.8 182.9 44.2 185.4 43.9C182.9 43.7 182.7 41 182.7 41Z" fill="#FFD08A"/>
<path d="M84.7 31C84.7 31 84.5 33.6 82 33.9C84.5 34.2 84.7 36.8 84.7 36.8C84.7 36.8 84.9 34.2 87.4 33.9C84.9 33.7 84.7 31 84.7 31Z" fill="#FFD08A"/>
<path d="M304.7 100C304.7 100 304.5 102.6 302 102.9C304.5 103.2 304.7 105.8 304.7 105.8C304.7 105.8 304.9 103.2 307.4 102.9C304.8 102.7 304.7 100 304.7 100Z" fill="#FFD08A"/>
<path d="M188.3 159.6C188.3 159.6 188.1 162.2 185.6 162.5C188.1 162.8 188.3 165.4 188.3 165.4C188.3 165.4 188.5 162.8 191 162.5C188.4 162.3 188.3 159.6 188.3 159.6Z" fill="#FFD08A"/>
<path d="M144.1 70C144.1 70 143.6 77 137 77.6C143.6 78.3 144.1 85.2 144.1 85.2C144.1 85.2 144.6 78.2 151.2 77.6C144.6 77 144.1 70 144.1 70Z" fill="#FFD08A"/>
<path d="M20.1 58.7C20.1 58.7 19.6 65.7 13 66.3C19.6 67 20.1 73.9 20.1 73.9C20.1 73.9 20.6 66.9 27.2 66.3C20.6 65.7 20.1 58.7 20.1 58.7Z" fill="#FFD08A"/>
<path d="M137.2 0C137.2 0 136.8 5.1 132 5.6C136.8 6.1 137.2 11.2 137.2 11.2C137.2 11.2 137.6 6.1 142.4 5.6C137.6 5 137.2 0 137.2 0Z" fill="#FFD08A"/>
<path d="M63.6 95C63.6 95 63.3 99.5 59 100C63.3 100.4 63.6 105 63.6 105C63.6 105 63.9 100.5 68.2 100C64 99.5 63.6 95 63.6 95Z" fill="#FFD08A"/>
<path d="M104.5 194.9C104.5 194.9 104.2 199.4 99.9 199.9C104.2 200.3 104.5 204.9 104.5 204.9C104.5 204.9 104.8 200.4 109.1 199.9C104.8 199.4 104.5 194.9 104.5 194.9Z" fill="#FFD08A"/>
<g style="mix-blend-mode:soft-light" opacity="0.5">
<path d="M242.8 168.5H349.1C349.1 168.5 341.5 145.2 328.7 148.6C315.9 151.9 316.4 154.8 316.4 154.8C316.4 154.8 312.6 134.9 295.5 137.7C278.4 140.5 274.6 154.3 274.6 154.3C274.6 154.3 263.7 150 258.9 154.3C254.2 158.6 255.1 160.9 255.1 160.9C255.1 160.9 244.7 156.2 242.8 168.5Z" fill="white"/>
</g>
<path opacity="0.25" d="M163.9 364.8C233.433 364.8 289.8 351.682 289.8 335.5C289.8 319.318 233.433 306.2 163.9 306.2C94.3674 306.2 38 319.318 38 335.5C38 351.682 94.3674 364.8 163.9 364.8Z" fill="#042030"/>
<path d="M262.5 194.1L163.9 227.8L65.2 194.1L18 262.7L163.9 312.6L309.7 262.7L262.5 194.1Z" fill="#4E2999"/>
<path opacity="0.45" d="M35.2 259.9L156.2 306.2L114.6 265C114.6 265 46.3 248.5 35.2 259.9Z" fill="#240F4F"/>
<path opacity="0.45" d="M292.6 259.9L171.6 306.2L213.2 265C213.1 265 281.4 248.5 292.6 259.9Z" fill="#240F4F"/>
<path d="M163.9 312.6L18 262.7V269.2L163.9 319.1L309.7 269.2V262.7L163.9 312.6Z" fill="#994EF8"/>
<path d="M86.2 342.6L103.1 298.3L157.5 316.9L86.2 342.6Z" fill="#3B1E77"/>
<path opacity="0.45" d="M90.9 329.8L157.5 316.9L103.1 298.3L90.9 329.8Z" fill="#3B1E77"/>
<path d="M163.9 314.6L86.2 342.6L92 348.7L163.9 323.1L235.7 348.7L241.6 342.6L163.9 314.6Z" fill="#994EF8"/>
<path d="M241.6 342.6L224.6 298.3L170.2 316.9L241.6 342.6Z" fill="#3B1E77"/>
<path opacity="0.45" d="M236.8 329.8L170.2 316.9L224.6 298.3L236.8 329.8Z" fill="#3B1E77"/>
<path d="M163.9 323.1C166.827 323.1 169.2 320.727 169.2 317.8C169.2 314.873 166.827 312.5 163.9 312.5C160.973 312.5 158.6 314.873 158.6 317.8C158.6 320.727 160.973 323.1 163.9 323.1Z" fill="white" fill-opacity="0.5"/>
<path d="M258.3 194.1L163.9 241.1L69.5 194.1C65.2 199.8 30.6 257.5 30.6 257.5C31 257.5 31.3 257.6 31.7 257.6C118.5 266.3 142.6 293.6 150.6 300.2C158.6 306.9 164 306.2 164 306.2C164 306.2 169.4 306.9 177.4 300.2C185.4 293.6 209.5 266.3 296.3 257.6C296.7 257.6 297 257.5 297.4 257.5C297.2 257.5 262.5 199.9 258.3 194.1Z" fill="#F5B304"/>
<path d="M297.2 257.5C296.8 257.5 296.5 257.6 296.1 257.6C209.3 266.3 185.2 293.6 177.2 300.2C169.2 306.9 163.8 306.2 163.8 306.2C163.8 306.2 158.4 306.9 150.4 300.2C142.4 293.6 118.3 266.3 31.5 257.6C31.1 257.6 30.8 257.5 30.4 257.5C29.7 258.6 30.4 259.4 30.4 259.4C118.1 267.9 141.4 295.3 149.4 302C157.4 308.6 163.7 308.1 163.7 308.1C163.7 308.1 170 308.6 178 302C186 295.4 209.3 268 297 259.4C297.2 259.4 297.9 258.6 297.2 257.5Z" fill="#994EF8"/>
<path d="M254.7 188.6C206.4 177 163.8 216.7 163.8 216.7C163.8 216.7 121.2 177 72.9 188.6C72.9 188.6 59.2 209.6 40.3 245.3C40.3 245.3 135.4 256 163.8 295.9C192.2 256 287.3 245.3 287.3 245.3C268.4 209.6 254.7 188.6 254.7 188.6Z" fill="#F5EFFB"/>
<path d="M287.3 245.3C287.3 245.3 192.2 256 163.8 295.9C135.5 256 40.4 245.3 40.4 245.3C40.4 245.3 40.4 248.5 35.1 254.8C35.1 254.8 121.4 261 152.8 296.8C160.2 305.2 163.8 304.2 163.8 304.2C163.8 304.2 167.5 305.2 174.8 296.8C206.1 261 292.5 254.8 292.5 254.8C287.3 248.4 287.3 245.3 287.3 245.3Z" fill="#DFCBF4"/>
<path d="M249.3 192.8C249.3 192.8 213.2 183.6 163.8 221.9C114.5 183.7 78.3 192.8 78.3 192.8L53.9 240.2C128.1 245.3 163.8 282.8 163.8 282.8C163.8 282.8 199.5 245.3 273.7 240.2L249.3 192.8ZM163.9 278.3C163.9 278.3 130.5 244.1 59.7 237.4L80.2 194.8C80.2 194.8 115.7 187.9 163.9 224.1C212.1 187.9 247.6 194.8 247.6 194.8L268.1 237.4C197.3 244.1 163.9 278.3 163.9 278.3Z" fill="#863ED5"/>
<path opacity="0.2" d="M173 257.594C186.333 247.76 228 226 256 229" stroke="#863ED5" stroke-width="3" stroke-linecap="round"/>
<path opacity="0.2" d="M173 230C184.833 220.735 215.6 202.581 244 204.088" stroke="#863ED5" stroke-width="3" stroke-linecap="round"/>
<path opacity="0.2" d="M173 244C185.833 234.022 219.2 214.472 250 216.095" stroke="#863ED5" stroke-width="3" stroke-linecap="round"/>
<path opacity="0.2" d="M156 257.594C142.667 247.76 101 226 73 229" stroke="#863ED5" stroke-width="3" stroke-linecap="round"/>
<path opacity="0.2" d="M156 230C144.167 220.735 113.4 202.581 85 204.088" stroke="#863ED5" stroke-width="3" stroke-linecap="round"/>
<path opacity="0.2" d="M156 244C143.167 234.022 109.8 214.472 79 216.095" stroke="#863ED5" stroke-width="3" stroke-linecap="round"/>
<path d="M163.9 216.7C163.9 216.7 164.9 213.2 166.8 214.2C166.8 214.2 165.6 270.9 167.6 293C168.1 298.5 172.9 306 174.8 308.8H172.3L171.6 311.1C171.6 311.1 164.2 298.6 163.9 293.7C162.4 271.7 163.2 222 163.9 216.7Z" fill="#54DAF5"/>
</svg>
